<svg id="Layer_1" data-name="Layer 1" xmlns="http://www.w3.org/2000/svg" xmlns:xlink="http://www.w3.org/1999/xlink" viewBox="0 0 120 60"><defs><style>.cls-1{fill:url(#linear-gradient);}.cls-2{fill:url(#linear-gradient-2);}.cls-3{fill:url(#New_Gradient_Swatch_1);}</style><linearGradient id="linear-gradient" x1="43.54" y1="45.5" x2="73.19" y2="24.12" gradientUnits="userSpaceOnUse"><stop offset="0.17" stop-color="#442f8f"/><stop offset="0.35" stop-color="#4b3491"/><stop offset="0.63" stop-color="#604198"/><stop offset="0.96" stop-color="#8156a4"/><stop offset="1" stop-color="#8559a5"/></linearGradient><linearGradient id="linear-gradient-2" x1="89.13" y1="39.41" x2="104.77" y2="26.79" gradientUnits="userSpaceOnUse"><stop offset="0" stop-color="#442f8f"/><stop offset="0.22" stop-color="#4b3491"/><stop offset="0.56" stop-color="#604198"/><stop offset="0.96" stop-color="#8156a4"/><stop offset="1" stop-color="#8559a5"/></linearGradient><linearGradient id="New_Gradient_Swatch_1" x1="16.53" y1="44.12" x2="30.65" y2="12.92" xlink:href="#linear-gradient-2"/></defs><title>logo14</title><path class="cls-1" d="M66.94,15.39c-6.29-1.12-12.56.24-16.85,5.26a17.31,17.31,0,0,0-2.77,17.46,16.62,16.62,0,0,0,14.25,10.4c6.51.57,11.81-2.81,15.47-8,2.34-3.31.58-8.34-2.7-10.26-3.75-2.2-7.91-.63-10.26,2.69-2.15,3-5-3.81-1.12-3.12s8.08-1.08,9.22-5.24c1-3.63-1.23-8.51-5.24-9.23Z"/><path class="cls-2" d="M103.46,15c-6.3-1.12-12.56.24-16.85,5.26a17.31,17.31,0,0,0-2.77,17.46,16.62,16.62,0,0,0,14.25,10.4c6.5.57,11.81-2.81,15.46-8,2.34-3.31.59-8.35-2.69-10.26-3.76-2.2-7.91-.63-10.26,2.69-2.16,3-5-3.81-1.13-3.12s8.08-1.09,9.23-5.24c1-3.63-1.23-8.51-5.24-9.23Z"/><path class="cls-3" d="M38.9,22.68a7.24,7.24,0,0,0-1.77-3.36l-.27-.45A7.66,7.66,0,0,0,26.6,16.18c-3.39,2-4.9,6.84-2.69,10.26.35.55.55.83.68,1.08s0,.37,0,.55a.91.91,0,0,0,0,.3v.07c-.22.26-.88,1-1,1.2l-.31.09h-.55c.45,0-.66-.25-1.11-.44-.66-.3-.32-.11-.61-.63l-.12-.44c0-.1,0-.31,0-.63a10,10,0,0,0,.74-1.3C23.84,22.89,22.35,18,19,16A7.63,7.63,0,0,0,8.7,18.73a17,17,0,0,0,6,23.9c-.58,0-1.18-.05-1.81-.12-4-.5-7.5,3.8-7.5,7.5,0,4.46,3.46,7,7.5,7.5C31.3,59.77,42.84,38.85,38.9,22.68ZM23.71,29.59c.46-.11.44-.09-.05,0Z"/></svg>