<svg id="Layer_1" data-name="Layer 1" xmlns="http://www.w3.org/2000/svg" viewBox="0 0 100 50"><defs><style>.cls-1{fill:#f386aa;}.cls-2{fill:#b42c73;}.cls-3,.cls-4{fill:#231f20;stroke:#000;}.cls-3{stroke-miterlimit:10;}.cls-4{stroke-linecap:round;stroke-linejoin:round;}</style></defs><title>logo16</title><path class="cls-1" d="M57.39,12.5c-9.6-3.86-19.11,5.07-17.2,14.82a12.83,12.83,0,0,0,8.54,9.46c4.74,1.65,9.62.11,13.19-3.21,5.32-4.95-2.65-12.89-8-8-.58.54-1.07.8-1.61.57a2.73,2.73,0,0,1-1.18-.88c.52.71-.1-.8,0-.12-.28-2.1,1-2.73,3.23-1.84,2.82,1.14,6.18-1.23,6.92-3.92.88-3.21-1.1-5.78-3.93-6.92Z"/><path class="cls-1" d="M86,12.2C76.45,8.33,66.92,17.26,68.83,27a12.79,12.79,0,0,0,8.52,9.46c4.75,1.66,9.62.13,13.21-3.2,5.31-4.93-2.66-12.87-8-8-.58.54-1.07.79-1.61.56A2.67,2.67,0,0,1,79.81,25c.52.72-.09-.8,0-.12a2.23,2.23,0,0,1,.74-2.15c-.45.4.77-.19.36-.16a4.29,4.29,0,0,1,2.14.49c2.82,1.14,6.18-1.24,6.92-3.93.88-3.21-1.1-5.78-3.93-6.92Z"/><path class="cls-1" d="M33.84,16.71a5.7,5.7,0,0,0-.45-1.34,5.63,5.63,0,0,0-10.73,3.39c.24,1.16.66,3.53.38,3.85a2.41,2.41,0,0,1-1.82.24c-.1,0-1.26-.15-1.54-.48-.1-.27,0-.69-.08-.47a4.72,4.72,0,0,1,.71-1.79c3.83-6.17-5.89-11.83-9.71-5.68a14.16,14.16,0,0,0-1,13.23,9.73,9.73,0,0,0,4.75,4.66,5.39,5.39,0,0,0-4.8,4c-.75,2.63.92,6.49,3.93,6.92,7.56,1.06,14.36-1.56,18-8.61A27.35,27.35,0,0,0,33.84,16.71Z"/><path class="cls-2" d="M56.39,11.5c-9.6-3.86-19.11,5.07-17.2,14.82a12.83,12.83,0,0,0,8.54,9.46c4.74,1.65,9.62.11,13.19-3.21,5.32-4.95-2.65-12.89-8-8-.58.54-1.07.8-1.61.57a2.73,2.73,0,0,1-1.18-.88c.52.71-.1-.8,0-.12-.28-2.1,1-2.73,3.23-1.84,2.82,1.14,6.18-1.23,6.92-3.92.88-3.21-1.1-5.78-3.93-6.92Z"/><path class="cls-2" d="M85,11.2C75.45,7.33,65.92,16.26,67.83,26a12.79,12.79,0,0,0,8.52,9.46c4.75,1.66,9.62.13,13.21-3.2,5.31-4.93-2.66-12.87-8-8-.58.54-1.07.79-1.61.56A2.67,2.67,0,0,1,78.81,24c.52.72-.09-.8,0-.12a2.23,2.23,0,0,1,.74-2.15c-.45.4.77-.19.36-.16a4.29,4.29,0,0,1,2.14.49c2.82,1.14,6.18-1.24,6.92-3.93.88-3.21-1.1-5.78-3.93-6.92Z"/><path class="cls-2" d="M32.84,15.71a5.7,5.7,0,0,0-.45-1.34,5.63,5.63,0,0,0-10.73,3.39c.24,1.16.66,3.53.38,3.85a2.41,2.41,0,0,1-1.82.24c-.1,0-1.26-.15-1.54-.48-.1-.27,0-.69-.08-.47a4.72,4.72,0,0,1,.71-1.79c3.83-6.17-5.89-11.83-9.71-5.68a14.16,14.16,0,0,0-1,13.23,9.73,9.73,0,0,0,4.75,4.66,5.39,5.39,0,0,0-4.8,4c-.75,2.63.92,6.49,3.93,6.92,7.56,1.06,14.36-1.56,18-8.61A27.35,27.35,0,0,0,32.84,15.71Z"/><path class="cls-3" d="M55.74,12c-9.05-3.64-18,4.65-16.28,13.9a12.06,12.06,0,0,0,8,8.93c4.47,1.59,9.09.12,12.46-3,4.61-4.28-2.3-11.16-6.89-6.89-1.34,1.25-3.67.91-4.08-1-.62-2.84,2.18-3.36,4.18-2.55,2.44,1,5.35-1.07,6-3.41.77-2.78-1-5-3.4-6Z"/><path class="cls-3" d="M84.38,11.73c-9-3.65-18,4.64-16.28,13.89a12.08,12.08,0,0,0,8,8.94c4.48,1.59,9.09.13,12.48-3,4.6-4.28-2.3-11.16-6.9-6.89-1.34,1.24-3.67.89-4.07-1-.62-2.84,2.18-3.35,4.18-2.54,2.44,1,5.36-1.07,6-3.4.76-2.79-1-5-3.41-6Z"/><path class="cls-4" d="M31.67,15.71a5.2,5.2,0,0,0-.4-1.19c-1.5-5.8-10.6-3.19-9.34,2.85.21,1,.57,3.55.23,4.33s-1.76.9-2.42.81c-.16,0-1.85-.17-2.21-.8-.53-.93-.05-2,.68-3.18,3.33-5.34-5.1-10.24-8.41-4.92a13.46,13.46,0,0,0-1,12.48c1.55,3.38,5.34,5.31,8.38,5.64a5.71,5.71,0,0,1-2.36.14c-2.63-.37-5.2.64-6,3.4-.65,2.28.81,5.63,3.41,6,7.23,1,13.69-1.53,17.13-8.26A26.55,26.55,0,0,0,31.67,15.71Z"/></svg>