<svg id="Layer_1" data-name="Layer 1" xmlns="http://www.w3.org/2000/svg" viewBox="0 0 120 70"><defs><style>.cls-1{fill:#231f20;}</style></defs><title>logo14</title><path class="cls-1" d="M70.78,20.16c-6.4-2.84-13.25-2.69-18.72,2-5,4.28-6.92,11.21-5.92,17.54A16.89,16.89,0,0,0,75,49.08c6.73-6.93-3.87-17.54-10.61-10.6-4.47,4.6-4.24-6.72-1.19-5.37,3.7,1.64,8.05,1.08,10.26-2.69,1.87-3.2,1-8.61-2.69-10.26Z"/><path class="cls-1" d="M106.53,18.8c-13.6-5.56-25,8.44-22.48,21.24,2.62,13.6,19.56,18.54,28.93,8.35,6.52-7.1-4.06-17.73-10.61-10.61-1.61,1.75-3.39,1.64-3.77-1.24-.12-.93.11-2.71.9-3.38,1.09-.93,1.56-.5,3,.1,3.75,1.53,8.24-1.66,9.22-5.24,1.18-4.29-1.47-7.69-5.23-9.22Z"/><path class="cls-1" d="M7.16,21.83C.43,33.35,7.15,49.72,21.5,50a17,17,0,0,0,15.07-9.34A19.15,19.15,0,0,0,35.85,22C31,13.67,18,21.21,22.9,29.56a5.15,5.15,0,0,1,.89,2.33c0-.29-.1.91-.22,1.21-.6,1.51-1.41,2-2.07,1.87a4.16,4.16,0,0,1-2.07-1.85,4.94,4.94,0,0,1,.68-3.72C25,21.05,12,13.49,7.16,21.83Z"/><path class="cls-1" d="M23.47,28.93c.14.65.19.72.08,0a14,14,0,0,1,.13,1.94,28.84,28.84,0,0,1-.12,3.48,30.72,30.72,0,0,1-1.74,7.12c-1.43,3.6-4.21,7.81-8.51,7.21-4-.56-8,1-9.23,5.24-1,3.5,1.23,8.67,5.24,9.23,10.68,1.49,19.81-3,24.81-12.72,3.91-7.65,5.69-17,3.8-25.5-2.1-9.42-16.56-5.44-14.46,4Z"/></svg>