<svg id="Layer_1" data-name="Layer 1" xmlns="http://www.w3.org/2000/svg" viewBox="0 0 100 50"><defs><style>.cls-1{fill:#231f20;}</style></defs><title>logo14</title><path class="cls-1" d="M57.64,10.49c-9.59-3.86-19.1,5.07-17.19,14.82A12.83,12.83,0,0,0,49,34.77c4.75,1.65,9.62.12,13.2-3.21,5.31-4.94-2.66-12.89-8-8-.59.55-1.07.8-1.61.58a2.84,2.84,0,0,1-1.19-.89c.53.72-.09-.8,0-.12-.28-2.1,1-2.73,3.22-1.83,2.82,1.13,6.18-1.24,6.92-3.93.88-3.21-1.1-5.78-3.93-6.92Z"/><path class="cls-1" d="M86.29,10.19C76.7,6.32,67.18,15.25,69.08,25a12.85,12.85,0,0,0,8.53,9.47c4.75,1.65,9.62.12,13.2-3.2,5.32-4.94-2.65-12.88-8-8-.59.54-1.07.79-1.61.56A2.82,2.82,0,0,1,80.06,23c.53.71-.09-.81,0-.13a2.21,2.21,0,0,1,.74-2.15c-.45.4.76-.19.36-.16A4.32,4.32,0,0,1,83.3,21c2.81,1.14,6.18-1.24,6.91-3.93.89-3.21-1.1-5.77-3.92-6.92Z"/><path class="cls-1" d="M10.85,12.42a14.19,14.19,0,0,0-1,13.23c1.95,4.23,6.51,5.84,10.89,6.29s9.39-1,11.87-4.75c2.61-4,2.08-9,1.16-13.43-.62-3-4.12-4.69-6.92-3.93a5.74,5.74,0,0,0-3.93,6.92c.3,1.41.71,3.46.2,4.51.08-.16.48-.71.41-.7a5.54,5.54,0,0,1-2.05.21A16,16,0,0,1,19,20c.46,0,.8.29,1,.93-.33-.56-.36-.63-.1-.22,0,0,0-1.22-.09-.86a4.9,4.9,0,0,1,.72-1.79c3.83-6.17-5.9-11.82-9.72-5.68Z"/><path class="cls-1" d="M23.22,17.69c.12.63.15.67.09.13,0,.42.06.84.07,1.26a15.53,15.53,0,0,1-.14,2.81A17.5,17.5,0,0,1,22,26.3c-1.63,3.72-4,5.27-8,4.77-3-.39-5.6,2.86-5.63,5.62C8.29,40,11,41.94,14,42.32,28.49,44.15,37,27.25,34.07,14.7c-1.66-7-12.51-4.06-10.85,3Z"/></svg>