<svg id="Layer_1" data-name="Layer 1" xmlns="http://www.w3.org/2000/svg" viewBox="0 0 120 70"><defs><style>.cls-1{fill:#231f20;}</style></defs><title>logo1</title><path class="cls-1" d="M66.94,20.39c-6.29-1.12-12.56.24-16.85,5.26a17.31,17.31,0,0,0-2.77,17.46,16.62,16.62,0,0,0,14.25,10.4c6.51.57,11.81-2.81,15.47-8,2.34-3.31.58-8.34-2.7-10.26-3.75-2.2-7.91-.63-10.26,2.69-2.15,3-5-3.81-1.12-3.12s8.08-1.08,9.22-5.24c1-3.63-1.23-8.51-5.24-9.23Z"/><path class="cls-1" d="M103.46,20c-6.3-1.12-12.56.24-16.85,5.26a17.31,17.31,0,0,0-2.77,17.46,16.62,16.62,0,0,0,14.25,10.4c6.5.57,11.81-2.81,15.46-8,2.34-3.31.59-8.35-2.69-10.26-3.76-2.2-7.91-.63-10.26,2.69-2.16,3-5-3.81-1.13-3.12s8.08-1.09,9.23-5.24c1-3.63-1.23-8.51-5.24-9.23Z"/><path class="cls-1" d="M8.7,23.73c-7.1,11,.83,25.91,14.07,26S43.94,34.85,36.86,23.87A7.66,7.66,0,0,0,26.6,21.18c-3.39,2-4.9,6.84-2.69,10.26.72,1.12.82,1.13.88,2-.1-1.42-.29.2-.09-.13-.07.11-1.52,1.77-1,1.24.57-.14.41-.08-.48.16.65,0,.49,0-.46,0,.45,0-.66-.25-1.11-.44-.75-.34-.21,0-.76-.87.24.55.22.39-.06-.49.09.64.11.48.07-.47-.11.63.59-.94.74-1.17C23.84,27.89,22.35,23,19,21A7.63,7.63,0,0,0,8.7,23.73Z"/><path class="cls-1" d="M24.43,30.66c.17.82.2.81.1,0,0,.5.08,1,.1,1.51a25.27,25.27,0,0,1-.15,3.37,27.81,27.81,0,0,1-1.59,5.4c-2.05,4.57-5,6.21-10,5.61-4-.5-7.5,3.8-7.5,7.5,0,4.46,3.46,7,7.5,7.5,18.37,2.26,29.91-18.66,26-34.83-2.29-9.38-16.75-5.41-14.47,4Z"/></svg>