<svg id="Layer_1" data-name="Layer 1" xmlns="http://www.w3.org/2000/svg" viewBox="0 0 100 70"><defs><style>.cls-1{fill:#231f20;}</style></defs><title>logo13</title><path class="cls-1" d="M57.64,26.72c-9.59-3.86-19.1,5.07-17.19,14.83A12.82,12.82,0,0,0,49,51c4.75,1.66,9.62.12,13.2-3.21,5.31-4.94-2.66-12.88-8-7.95-.59.54-1.07.8-1.61.57a2.82,2.82,0,0,1-1.19-.88c.53.71-.09-.8,0-.13-.28-2.1,1-2.73,3.22-1.83,2.82,1.14,6.18-1.23,6.92-3.93.88-3.21-1.1-5.78-3.93-6.92Z"/><path class="cls-1" d="M86.09,26.31c-9.65-3.58-19,5.28-17,15.1A12.84,12.84,0,0,0,91,47.32c5.17-5.08-2.79-13-8-8-.67.66-1.06.91-1.49.74-1-.38-1.36-.61-1.46-1.29a2.65,2.65,0,0,1,.22-1.28c.15-.33.66-.74.33-.45.72-.64,1.33-.36,2.5.07C86,38.22,89.27,36,90,33.23c.87-3.14-1.07-5.86-3.93-6.92Z"/><path class="cls-1" d="M10.85,28.66c-5.07,8.69,0,21,10.82,21.23a12.8,12.8,0,0,0,11.37-7,14.43,14.43,0,0,0-.55-14.06c-3.66-6.24-13.38-.59-9.71,5.68a3,3,0,0,1,.52,2.73c-.43,1.08-1.13,1.66-1.63,1.45a3.39,3.39,0,0,1-1.62-1.43A4.23,4.23,0,0,1,20,35.88a3.87,3.87,0,0,1,.61-1.55c3.66-6.26-6.06-11.93-9.72-5.67Z"/><path class="cls-1" d="M23.22,34c.48,2.21-.09,6.75-1.31,9.69-1.09,2.62-3.16,5.82-6.47,5.37-3-.41-6,.73-6.92,3.93-.75,2.61.93,6.51,3.93,6.92,8.1,1.09,14.82-2.22,18.7-9.52A29.31,29.31,0,0,0,34.07,31c-1.55-7.06-12.4-4.07-10.85,3Z"/></svg>