<svg id="Layer_1" data-name="Layer 1" xmlns="http://www.w3.org/2000/svg" viewBox="0 0 100 50"><defs><style>.cls-1{fill:#231f20;}</style></defs><title>logo14</title><path class="cls-1" d="M57.64,13.49c-9.59-3.86-19.1,5.07-17.19,14.82A12.83,12.83,0,0,0,49,37.77c4.75,1.65,9.62.12,13.2-3.21,5.31-4.94-2.66-12.89-8-8-.59.55-1.07.8-1.61.58a2.84,2.84,0,0,1-1.19-.89c.53.72-.09-.8,0-.12-.28-2.1,1-2.73,3.22-1.83,2.82,1.13,6.18-1.24,6.92-3.93.88-3.21-1.1-5.78-3.93-6.92Z"/><path class="cls-1" d="M86.29,13.19C76.7,9.32,67.18,18.25,69.08,28a12.85,12.85,0,0,0,8.53,9.47c4.75,1.65,9.62.12,13.2-3.2,5.32-4.94-2.65-12.88-8-8-.59.54-1.07.79-1.61.56A2.82,2.82,0,0,1,80.06,26c.53.71-.09-.81,0-.13a2.21,2.21,0,0,1,.74-2.15c-.45.4.76-.19.36-.16A4.32,4.32,0,0,1,83.3,24c2.81,1.14,6.18-1.24,6.91-3.93.89-3.21-1.1-5.77-3.92-6.92Z"/><path class="cls-1" d="M10.85,15.42a14.19,14.19,0,0,0-1,13.23c1.95,4.23,6.51,5.84,10.89,6.29s9.39-1,11.87-4.75c2.61-4,2.08-9,1.16-13.43-.62-3-4.12-4.69-6.92-3.93a5.74,5.74,0,0,0-3.93,6.92c.3,1.41.71,3.46.2,4.51.08-.16.48-.71.41-.7a5.54,5.54,0,0,1-2.05.21A16,16,0,0,1,19,23c.46,0,.8.29,1,.93-.33-.56-.36-.63-.1-.22,0,0,0-1.22-.09-.86a4.9,4.9,0,0,1,.72-1.79c3.83-6.17-5.9-11.82-9.72-5.68Z"/><path class="cls-1" d="M23.25,20.69q.18.94.06.06.06.6.09,1.2a23.48,23.48,0,0,1,0,2.65,16.6,16.6,0,0,1-1.06,4.59c-1,2.48-2.68,4.55-5.58,4.14s-6,.74-6.92,3.93c-.76,2.63.92,6.5,3.92,6.92,7.57,1.06,14.37-1.55,18-8.6A27.45,27.45,0,0,0,34.1,17.7c-1.5-7.08-12.35-4.09-10.85,3Z"/></svg>