<?xml version="1.0" encoding="UTF-8"?>
<svg width="456px" height="230px" viewBox="0 0 456 230" version="1.1" xmlns="http://www.w3.org/2000/svg" xmlns:xlink="http://www.w3.org/1999/xlink">
    <!-- Generator: Sketch 55.2 (78181) - https://sketchapp.com -->
    <title>Artboard Copy 6</title>
    <desc>Created with Sketch.</desc>
    <g id="Artboard-Copy-6" stroke="none" stroke-width="1" fill="none" fill-rule="evenodd">
        <path d="M146.125124,80.2653769 C145.731237,78.188433 145.121598,76.334923 144.364805,74.6531158 C141.101964,63.2227702 127.412193,56.5175545 116.170936,59.325336 C103.164934,62.5733813 96.7366167,75.304706 99.0689563,87.796087 C99.9729038,92.640088 101.5053,102.54492 100.314788,103.859107 C98.5389797,105.119362 96.2132787,105.225025 92.6550225,104.684601 C92.2390075,104.621864 87.3895558,103.959267 86.2510466,102.564732 C85.878182,101.413442 86.2067896,99.6876087 85.9622702,100.581344 C86.9790728,96.8677199 87.3818108,95.8286977 89.1211076,93.1783104 C105.75507,67.8389348 65.527745,43.3734826 48.9579551,68.6171008 C38.3882968,84.7186439 35.6996891,105.888723 43.4778423,123.662167 C47.5096475,132.874684 54.5464974,139.210078 62.9232254,143.514757 C53.6646783,144.43821 45.6032808,149.471524 42.4555075,159.531549 C39.0488313,170.414867 45.7227744,186.687012 58.2685041,188.729836 C89.8491339,193.871015 118.57298,183.587556 134.398147,154.543361 C146.535607,132.270422 150.850656,105.164489 146.125124,80.2653769" id="Fill-39-Copy" fill="#C57FE6"></path>
        <path d="M140.125124,74.2653769 C139.731237,72.188433 139.121598,70.334923 138.364805,68.6531158 C135.101964,57.2227702 121.412193,50.5175545 110.170936,53.325336 C97.164934,56.5733813 90.7366167,69.304706 93.0689563,81.796087 C93.9729038,86.640088 95.5052996,96.54492 94.3147885,97.859107 C92.5389797,99.1193618 90.2132787,99.2250251 86.6550225,98.6846014 C86.2390075,98.6218638 81.3895558,97.959267 80.2510466,96.5647318 C79.878182,95.4134423 80.2067896,93.6876087 79.9622702,94.581344 C80.9790728,90.8677199 81.3818108,89.8286977 83.1211076,87.1783104 C99.7550701,61.8389348 59.527745,37.3734826 42.9579551,62.6171008 C32.3882968,78.7186439 29.6996891,99.8887226 37.4778423,117.662167 C41.5096475,126.874684 48.5464974,133.210078 56.9232254,137.514757 C47.6646783,138.43821 39.6032808,143.471524 36.4555075,153.531549 C33.0488313,164.414867 39.7227744,180.687012 52.2685041,182.729836 C83.8491339,187.871015 112.57298,177.587556 128.398147,148.543361 C140.535607,126.270422 144.850656,99.1644888 140.125124,74.2653769" id="Fill-39-Copy-2" fill="#FF467F"></path>
        <path d="M135.125124,69.2653769 C134.731237,67.188433 134.121598,65.334923 133.364805,63.6531158 C130.101964,52.2227702 116.412193,45.5175545 105.170936,48.325336 C92.164934,51.5733813 85.7366167,64.304706 88.0689563,76.796087 C88.9729038,81.640088 90.5052996,91.54492 89.3147885,92.859107 C87.5389797,94.1193618 85.2132787,94.2250251 81.6550225,93.6846014 C81.2390075,93.6218638 76.3895558,92.959267 75.2510466,91.5647318 C74.878182,90.4134423 75.2067896,88.6876087 74.9622702,89.581344 C75.9790728,85.8677199 76.3818108,84.8286977 78.1211076,82.1783104 C94.7550701,56.8389348 54.527745,32.3734826 37.9579551,57.6171008 C27.3882968,73.7186439 24.6996891,94.8887226 32.4778423,112.662167 C36.5096475,121.874684 43.5464974,128.210078 51.9232254,132.514757 C42.6646783,133.43821 34.6032808,138.471524 31.4555075,148.531549 C28.0488313,159.414867 34.7227744,175.687012 47.2685041,177.729836 C78.8491339,182.871015 107.57298,172.587556 123.398147,143.543361 C135.535607,121.270422 139.850656,94.1644888 135.125124,69.2653769" id="Fill-39" fill="#FB9E20"></path>
        <path d="M129.125124,63.2653769 C128.731237,61.188433 128.121598,59.334923 127.364805,57.6531158 C124.101964,46.2227702 110.412193,39.5175545 99.1709356,42.325336 C86.164934,45.5733813 79.7366167,58.304706 82.0689563,70.796087 C82.9729038,75.640088 84.5052996,85.54492 83.3147885,86.859107 C81.5389797,88.1193618 79.2132787,88.2250251 75.6550225,87.6846014 C75.2390075,87.6218638 70.3895558,86.959267 69.2510466,85.5647318 C68.878182,84.4134423 69.2067896,82.6876087 68.9622702,83.581344 C69.9790728,79.8677199 70.3818108,78.8286977 72.1211076,76.1783104 C88.7550701,50.8389348 48.527745,26.3734826 31.9579551,51.6171008 C21.3882968,67.7186439 18.6996891,88.8887226 26.4778423,106.662167 C30.5096475,115.874684 37.5464974,122.210078 45.9232254,126.514757 C36.6646783,127.43821 28.6032808,132.471524 25.4555075,142.531549 C22.0488313,153.414867 28.7227744,169.687012 41.2685041,171.729836 C72.8491339,176.871015 101.57298,166.587556 117.398147,137.543361 C129.535607,115.270422 133.850656,88.1644888 129.125124,63.2653769" id="Fill-39-Copy-3" fill="#8240A1"></path>
        <path d="M183.332215,146.711263 C192.061117,166.114114 211.285749,178.356141 232.299363,180.656111 C255.738903,183.222475 276.436814,171.189836 289.301975,152.412954 C308.411403,124.522796 264.209116,96.2714011 246.427335,122.205718 C240.944873,130.201763 232.64538,130.966354 229.176639,124.641632 C225.707898,118.31691 232.299363,111.155298 244.13766,113.964637 C258.023267,117.259822 271.104208,101.945153 271.661395,88.9905516 C272.326033,73.5419405 260.566384,63.9649418 246.427335,61.7504801 C198.489267,54.2421394 164.363468,104.547693 183.332215,146.711263 Z" id="Fill-41" fill="#C57FE6"></path>
        <path d="M323.332215,146.711263 C332.061117,166.114114 351.285749,178.356141 372.299363,180.656111 C395.738903,183.222475 416.436814,171.189836 429.301975,152.412954 C448.411403,124.522796 404.209116,96.2714011 386.427335,122.205718 C380.944873,130.201763 372.64538,130.966354 369.176639,124.641632 C365.707898,118.31691 372.299363,111.155298 384.13766,113.964637 C398.023267,117.259822 411.104208,101.945153 411.661395,88.9905516 C412.326033,73.5419405 400.566384,63.9649418 386.427335,61.7504801 C338.489267,54.2421394 304.363468,104.547693 323.332215,146.711263 Z" id="Fill-41-Copy-6" fill="#C57FE6"></path>
        <path d="M177.332215,141.425524 C186.061117,160.990065 205.285749,173.334108 226.299363,175.653245 C249.738903,178.240996 270.436814,166.108084 283.301975,147.174729 C302.411403,119.052152 258.209116,90.5653295 240.427335,116.715766 C234.944873,124.778444 226.64538,125.549407 223.176639,119.171979 C219.707898,112.794551 226.299363,105.573258 238.13766,108.406009 C252.023267,111.728654 265.104208,96.2863622 265.661395,83.2238062 C266.326033,67.6464567 254.566384,57.9896496 240.427335,55.7567341 C192.489267,48.1858238 158.363468,98.9105907 177.332215,141.425524 Z" id="Fill-41-Copy-3" fill="#FF467F"></path>
        <path d="M317.332215,141.425524 C326.061117,160.990065 345.285749,173.334108 366.299363,175.653245 C389.738903,178.240996 410.436814,166.108084 423.301975,147.174729 C442.411403,119.052152 398.209116,90.5653295 380.427335,116.715766 C374.944873,124.778444 366.64538,125.549407 363.176639,119.171979 C359.707898,112.794551 366.299363,105.573258 378.13766,108.406009 C392.023267,111.728654 405.104208,96.2863622 405.661395,83.2238062 C406.326033,67.6464567 394.566384,57.9896496 380.427335,55.7567341 C332.489267,48.1858238 298.363468,98.9105907 317.332215,141.425524 Z" id="Fill-41-Copy-7" fill="#FF467F"></path>
        <path d="M172.286248,135.711263 C180.939901,155.114114 199.998803,167.356141 220.831265,169.656111 C244.06874,172.222475 264.588221,160.189836 277.342475,141.412954 C296.287167,113.522796 252.465934,85.2714011 234.837444,111.205718 C229.402245,119.201763 221.174299,119.966354 217.735461,113.641632 C214.296624,107.31691 220.831265,100.155298 232.567508,102.964637 C246.333412,106.259822 259.301585,90.9451526 259.853969,77.9905516 C260.512877,62.5419405 248.854605,52.9649418 234.837444,50.7504801 C187.312635,43.2421394 153.481025,93.5476933 172.286248,135.711263 Z" id="Fill-41-Copy-4" fill="#FB9E20"></path>
        <path d="M312.332215,135.711263 C321.061117,155.114114 340.285749,167.356141 361.299363,169.656111 C384.738903,172.222475 405.436814,160.189836 418.301975,141.412954 C437.411403,113.522796 393.209116,85.2714011 375.427335,111.205718 C369.944873,119.201763 361.64538,119.966354 358.176639,113.641632 C354.707898,107.31691 361.299363,100.155298 373.13766,102.964637 C387.023267,106.259822 400.104208,90.9451526 400.661395,77.9905516 C401.326033,62.5419405 389.566384,52.9649418 375.427335,50.7504801 C327.489267,43.2421394 293.363468,93.5476933 312.332215,135.711263 Z" id="Fill-41-Copy-8" fill="#FB9E20"></path>
        <path d="M166.332215,130.425524 C175.061117,149.990065 194.285749,162.334108 215.299363,164.653245 C238.738903,167.240996 259.436814,155.108084 272.301975,136.174729 C291.411403,108.052152 247.209116,79.5653295 229.427335,105.715766 C223.944873,113.778444 215.64538,114.549407 212.176639,108.171979 C208.707898,101.794551 215.299363,94.5732585 227.13766,97.4060089 C241.023267,100.728654 254.104208,85.2863622 254.661395,72.2238062 C255.326033,56.6464567 243.566384,46.9896496 229.427335,44.7567341 C181.489267,37.1858238 147.363468,87.9105907 166.332215,130.425524 Z" id="Fill-41-Copy-5" fill="#8240A1"></path>
        <path d="M306.332215,130.425524 C315.061117,149.990065 334.285749,162.334108 355.299363,164.653245 C378.738903,167.240996 399.436814,155.108084 412.301975,136.174729 C431.411403,108.052152 387.209116,79.5653295 369.427335,105.715766 C363.944873,113.778444 355.64538,114.549407 352.176639,108.171979 C348.707898,101.794551 355.299363,94.5732585 367.13766,97.4060089 C381.023267,100.728654 394.104208,85.2863622 394.661395,72.2238062 C395.326033,56.6464567 383.566384,46.9896496 369.427335,44.7567341 C321.489267,37.1858238 287.363468,87.9105907 306.332215,130.425524 Z" id="Fill-41-Copy-9" fill="#8240A1"></path>
    </g>
</svg>