<svg id="Layer_1" data-name="Layer 1" xmlns="http://www.w3.org/2000/svg" viewBox="0 0 100 50"><defs><style>.cls-1{fill:#231f20;}</style></defs><title>logo14</title><path class="cls-1" d="M57.64,10.49c-9.59-3.86-19.1,5.07-17.19,14.82A12.83,12.83,0,0,0,49,34.77c4.75,1.65,9.62.12,13.2-3.21,5.31-4.94-2.66-12.89-8-8-.59.55-1.07.8-1.61.58a2.84,2.84,0,0,1-1.19-.89c.53.72-.09-.8,0-.12-.28-2.1,1-2.73,3.22-1.83,2.82,1.13,6.18-1.24,6.92-3.93.88-3.21-1.1-5.78-3.93-6.92Z"/><path class="cls-1" d="M86.29,10.19C76.7,6.32,67.18,15.25,69.08,25a12.85,12.85,0,0,0,8.53,9.47c4.75,1.65,9.62.12,13.2-3.2,5.32-4.94-2.65-12.88-8-8-.59.54-1.07.79-1.61.56A2.82,2.82,0,0,1,80.06,23c.53.71-.09-.81,0-.13a2.21,2.21,0,0,1,.74-2.15c-.45.4.76-.19.36-.16A4.32,4.32,0,0,1,83.3,21c2.81,1.14,6.18-1.24,6.91-3.93.89-3.21-1.1-5.77-3.92-6.92Z"/><path class="cls-1" d="M10.85,12.42A15.6,15.6,0,0,0,9.34,25c1.71,5,6.4,7.18,11.39,7.71,4.51.48,9.73-1.18,12.12-5.28s1.78-9.26.91-13.7c-.58-3-4.15-4.69-6.92-3.93a5.75,5.75,0,0,0-3.93,6.92,17.12,17.12,0,0,1,.35,2.56c0,.66-.21,2.27-.13,2.41.22.4-.3.25.11-.06a2.75,2.75,0,0,0,.32-.34c-.64-.11-1.19.39-2.09.26-.19,0-2.44-.79-2.43-.81s1,.9,1.06.92c-.34-.11-.17-.8-.1-.2a4.86,4.86,0,0,1,.57-3.39c3.65-6.27-6.07-11.94-9.72-5.68Z"/><path class="cls-1" d="M23.22,17.76c.48,2.2-.09,6.75-1.31,9.68-1.09,2.63-3.16,5.82-6.47,5.37-3-.41-6,.73-6.92,3.93-.75,2.62.93,6.51,3.93,6.92,8.1,1.1,14.82-2.22,18.7-9.52a29.29,29.29,0,0,0,2.92-19.37c-1.55-7.07-12.4-4.08-10.85,3Z"/></svg>